# xmcd CD database file
#
# Track frame offsets:
#	150
#	12570
#	27106
#	41087
#	55747
#	75753
#	89914
#	106271
#	120691
#	141609
#	153079
#	169534
#	187418
#	208146
#	227847
#	246618
#	270200
#	292940
#	312790
#	332752
#
# Disc length: 4729 seconds
#
# Revision: 2
# Processed by: cddbd v1.5.2PL0 Copyright (c) Steve Scherf et al.
# Submitted via: CDex 1.70beta2
#
DISCID=1b127714
DTITLE=Various Artist - 音楽を愛して、音楽に愛されて 湯川れい子 作詞コレクション [Disc 1]
DYEAR=2016
DGENRE=歌謡曲
TTITLE0=涙の太陽（Crying In A Storm） - エミー・ジャクソン
TTITLE1=ドゥー・ユー・ノウ - 尾崎紀世彦
TTITLE2=ランナウェイ - シャネルズ
TTITLE3=風の彼方に - 葛城ユキ
TTITLE4=さすらいのカンフーTHEME FROM THE YOUNG MASTER - ジャッキー・チェン
TTITLE5=センチメンタル・ジャーニー - 松本伊代
TTITLE6=魔法でダンス - デイビー・ジョーンズ
TTITLE7=街角トワイライト - シャネルズ
TTITLE8=雨のリグレット - 稲垣潤一
TTITLE9=恋と涙の17才 - つちやかおり
TTITLE10=たったひとつの歌だけど… - 西田敏行
TTITLE11=銀河旅行 - ザ・タイガース
TTITLE12=ロング・バージョン - 稲垣潤一
TTITLE13=AMAPOLA - 沢田研二
TTITLE14=風のマジカル - 小泉今日子
TTITLE15=六本木心中 - アン・ルイス
TTITLE16=恋におちて -Fall in love- - 小林明子
TTITLE17=SOLITUDE - 中森明菜
TTITLE18=THAT'S ALL RIGHT, ELVIS - 加山雄三
TTITLE19=Endless Sunset - TUBE
EXTD=YEAR: 2016
EXTT0=
EXTT1=
EXTT2=
EXTT3=
EXTT4=
EXTT5=
EXTT6=
EXTT7=
EXTT8=
EXTT9=
EXTT10=
EXTT11=
EXTT12=
EXTT13=
EXTT14=
EXTT15=
EXTT16=
EXTT17=
EXTT18=
EXTT19=
PLAYORDER=
